<svg width="148" height="40" viewBox="0 0 148 40" fill="none" xmlns="http://www.w3.org/2000/svg">
<path d="M5.004 32C4.596 32 4.26 31.868 3.996 31.604C3.732 31.34 3.6 31.004 3.6 30.596V5.288C3.6 4.88 3.732 4.544 3.996 4.28C4.26 4.016 4.596 3.884 5.004 3.884H11.736C13.488 3.884 15.048 4.256 16.416 5C17.784 5.72 18.852 6.74 19.62 8.06C20.412 9.356 20.808 10.856 20.808 12.56C20.808 14.192 20.412 15.644 19.62 16.916C18.852 18.188 17.784 19.184 16.416 19.904C15.048 20.624 13.488 20.984 11.736 20.984H6.408V30.596C6.408 31.004 6.276 31.34 6.012 31.604C5.748 31.868 5.412 32 5.004 32ZM20.052 32C19.74 32 19.488 31.94 19.296 31.82C19.128 31.7 18.972 31.52 18.828 31.28L11.916 20.264L14.724 19.544L21.168 29.84C21.528 30.416 21.588 30.92 21.348 31.352C21.132 31.784 20.7 32 20.052 32ZM6.408 18.284H11.736C12.96 18.284 14.04 18.044 14.976 17.564C15.936 17.06 16.692 16.376 17.244 15.512C17.796 14.648 18.072 13.664 18.072 12.56C18.072 11.384 17.796 10.352 17.244 9.464C16.692 8.552 15.936 7.844 14.976 7.34C14.04 6.836 12.96 6.584 11.736 6.584H6.408V18.284ZM33.8819 32.18C31.9379 32.18 30.2099 31.76 28.6979 30.92C27.2099 30.056 26.0339 28.868 25.1699 27.356C24.3299 25.844 23.9099 24.116 23.9099 22.172C23.9099 20.204 24.3059 18.476 25.0979 16.988C25.9139 15.476 27.0299 14.288 28.4459 13.424C29.8619 12.56 31.4939 12.128 33.3419 12.128C35.1659 12.128 36.7499 12.548 38.0939 13.388C39.4619 14.204 40.5179 15.344 41.2619 16.808C42.0059 18.272 42.3779 19.94 42.3779 21.812C42.3779 22.196 42.2579 22.508 42.0179 22.748C41.7779 22.964 41.4659 23.072 41.0819 23.072H25.7819V20.768H41.3699L39.8219 21.884C39.8459 20.492 39.5939 19.244 39.0659 18.14C38.5379 17.036 37.7819 16.172 36.7979 15.548C35.8379 14.924 34.6859 14.612 33.3419 14.612C31.9739 14.612 30.7739 14.936 29.7419 15.584C28.7099 16.232 27.9059 17.132 27.3299 18.284C26.7779 19.412 26.5019 20.708 26.5019 22.172C26.5019 23.636 26.8139 24.932 27.4379 26.06C28.0859 27.188 28.9619 28.076 30.0659 28.724C31.1699 29.372 32.4419 29.696 33.8819 29.696C34.7459 29.696 35.6099 29.552 36.4739 29.264C37.3619 28.952 38.0699 28.568 38.5979 28.112C38.8619 27.896 39.1619 27.788 39.4979 27.788C39.8339 27.764 40.1219 27.848 40.3619 28.04C40.6739 28.328 40.8299 28.64 40.8299 28.976C40.8539 29.312 40.7219 29.6 40.4339 29.84C39.6419 30.512 38.6339 31.076 37.4099 31.532C36.1859 31.964 35.0099 32.18 33.8819 32.18ZM54.5001 32.18C52.6041 32.18 50.9241 31.76 49.4601 30.92C47.9961 30.056 46.8441 28.868 46.0041 27.356C45.1881 25.844 44.7801 24.116 44.7801 22.172C44.7801 20.204 45.2121 18.464 46.0761 16.952C46.9401 15.44 48.1281 14.264 49.6401 13.424C51.1521 12.56 52.8681 12.128 54.7881 12.128C56.7321 12.128 58.4481 12.56 59.9361 13.424C61.4481 14.264 62.6241 15.44 63.4641 16.952C64.3281 18.464 64.7721 20.204 64.7961 22.172L63.1761 23.036C63.1761 24.812 62.8041 26.396 62.0601 27.788C61.3161 29.156 60.2841 30.236 58.9641 31.028C57.6681 31.796 56.1801 32.18 54.5001 32.18ZM54.8601 39.776C52.9641 39.776 51.2961 39.416 49.8561 38.696C48.4161 38 47.2281 37.04 46.2921 35.816C46.0281 35.528 45.9081 35.216 45.9321 34.88C45.9801 34.544 46.1601 34.268 46.4721 34.052C46.7841 33.836 47.1321 33.764 47.5161 33.836C47.9001 33.908 48.2001 34.088 48.4161 34.376C49.1121 35.24 50.0001 35.936 51.0801 36.464C52.1841 36.992 53.4561 37.256 54.8961 37.256C56.2401 37.256 57.4521 36.932 58.5321 36.284C59.6121 35.636 60.4641 34.724 61.0881 33.548C61.7361 32.372 62.0601 30.992 62.0601 29.408V23.936L63.1041 21.848L64.7961 22.172V29.516C64.7961 31.46 64.3641 33.2 63.5001 34.736C62.6361 36.296 61.4601 37.52 59.9721 38.408C58.4841 39.32 56.7801 39.776 54.8601 39.776ZM54.7881 29.66C56.2041 29.66 57.4521 29.348 58.5321 28.724C59.6361 28.076 60.5001 27.188 61.1241 26.06C61.7481 24.932 62.0601 23.636 62.0601 22.172C62.0601 20.708 61.7481 19.412 61.1241 18.284C60.5001 17.132 59.6361 16.244 58.5321 15.62C57.4521 14.972 56.2041 14.648 54.7881 14.648C53.3721 14.648 52.1121 14.972 51.0081 15.62C49.9041 16.244 49.0401 17.132 48.4161 18.284C47.7921 19.412 47.4801 20.708 47.4801 22.172C47.4801 23.636 47.7921 24.932 48.4161 26.06C49.0401 27.188 49.9041 28.076 51.0081 28.724C52.1121 29.348 53.3721 29.66 54.7881 29.66ZM71.6273 32C71.1953 32 70.8473 31.88 70.5833 31.64C70.3433 31.376 70.2233 31.028 70.2233 30.596V13.712C70.2233 13.28 70.3433 12.944 70.5833 12.704C70.8473 12.44 71.1953 12.308 71.6273 12.308C72.0353 12.308 72.3593 12.44 72.5993 12.704C72.8633 12.944 72.9953 13.28 72.9953 13.712V30.596C72.9953 31.028 72.8633 31.376 72.5993 31.64C72.3593 31.88 72.0353 32 71.6273 32ZM71.5913 8.564C71.0633 8.564 70.6073 8.372 70.2233 7.988C69.8393 7.604 69.6473 7.136 69.6473 6.584C69.6473 5.984 69.8393 5.516 70.2233 5.18C70.6313 4.82 71.0993 4.64 71.6273 4.64C72.1313 4.64 72.5753 4.82 72.9593 5.18C73.3673 5.516 73.5713 5.984 73.5713 6.584C73.5713 7.136 73.3793 7.604 72.9953 7.988C72.6113 8.372 72.1433 8.564 71.5913 8.564ZM86.3896 32.18C84.9736 32.18 83.5696 31.94 82.1776 31.46C80.7856 30.98 79.6576 30.26 78.7936 29.3C78.5296 29.012 78.4216 28.688 78.4696 28.328C78.5176 27.968 78.6976 27.656 79.0096 27.392C79.3456 27.152 79.6936 27.056 80.0536 27.104C80.4136 27.152 80.7136 27.308 80.9536 27.572C81.5296 28.244 82.2856 28.76 83.2216 29.12C84.1816 29.48 85.2376 29.66 86.3896 29.66C88.1656 29.66 89.4496 29.36 90.2416 28.76C91.0336 28.136 91.4416 27.392 91.4656 26.528C91.4656 25.664 91.0576 24.956 90.2416 24.404C89.4256 23.828 88.0816 23.384 86.2096 23.072C83.7856 22.688 82.0096 22.016 80.8816 21.056C79.7536 20.096 79.1896 18.956 79.1896 17.636C79.1896 16.412 79.5136 15.392 80.1616 14.576C80.8096 13.76 81.6736 13.148 82.7536 12.74C83.8336 12.332 85.0216 12.128 86.3176 12.128C87.9256 12.128 89.3056 12.404 90.4576 12.956C91.6336 13.508 92.5816 14.252 93.3016 15.188C93.5416 15.5 93.6376 15.824 93.5896 16.16C93.5416 16.496 93.3496 16.772 93.0136 16.988C92.7256 17.156 92.3896 17.216 92.0056 17.168C91.6456 17.096 91.3336 16.916 91.0696 16.628C90.4696 15.932 89.7736 15.428 88.9816 15.116C88.1896 14.78 87.2776 14.612 86.2456 14.612C84.9256 14.612 83.8696 14.888 83.0776 15.44C82.2856 15.968 81.8896 16.64 81.8896 17.456C81.8896 18.008 82.0336 18.488 82.3216 18.896C82.6336 19.304 83.1496 19.664 83.8696 19.976C84.6136 20.288 85.6456 20.552 86.9656 20.768C88.7656 21.056 90.1816 21.488 91.2136 22.064C92.2696 22.616 93.0136 23.276 93.4456 24.044C93.9016 24.788 94.1296 25.604 94.1296 26.492C94.1296 27.62 93.7936 28.616 93.1216 29.48C92.4736 30.32 91.5616 30.98 90.3856 31.46C89.2336 31.94 87.9016 32.18 86.3896 32.18ZM106.084 32C104.812 32 103.672 31.7 102.664 31.1C101.68 30.5 100.9 29.684 100.324 28.652C99.7478 27.596 99.4598 26.396 99.4598 25.052V7.448C99.4598 7.04 99.5798 6.704 99.8198 6.44C100.084 6.176 100.42 6.044 100.828 6.044C101.236 6.044 101.572 6.176 101.836 6.44C102.1 6.704 102.232 7.04 102.232 7.448V25.052C102.232 26.276 102.592 27.284 103.312 28.076C104.032 28.844 104.956 29.228 106.084 29.228H107.056C107.44 29.228 107.752 29.36 107.992 29.624C108.232 29.888 108.352 30.224 108.352 30.632C108.352 31.04 108.208 31.376 107.92 31.64C107.632 31.88 107.272 32 106.84 32H106.084ZM97.1198 15.44C96.7598 15.44 96.4598 15.332 96.2198 15.116C95.9798 14.876 95.8598 14.588 95.8598 14.252C95.8598 13.892 95.9798 13.604 96.2198 13.388C96.4598 13.148 96.7598 13.028 97.1198 13.028H106.3C106.66 13.028 106.96 13.148 107.2 13.388C107.44 13.604 107.56 13.892 107.56 14.252C107.56 14.588 107.44 14.876 107.2 15.116C106.96 15.332 106.66 15.44 106.3 15.44H97.1198ZM121.252 32.18C119.308 32.18 117.58 31.76 116.068 30.92C114.58 30.056 113.404 28.868 112.54 27.356C111.7 25.844 111.28 24.116 111.28 22.172C111.28 20.204 111.676 18.476 112.468 16.988C113.284 15.476 114.4 14.288 115.816 13.424C117.232 12.56 118.864 12.128 120.712 12.128C122.536 12.128 124.12 12.548 125.464 13.388C126.832 14.204 127.888 15.344 128.632 16.808C129.376 18.272 129.748 19.94 129.748 21.812C129.748 22.196 129.628 22.508 129.388 22.748C129.148 22.964 128.836 23.072 128.452 23.072H113.152V20.768H128.74L127.192 21.884C127.216 20.492 126.964 19.244 126.436 18.14C125.908 17.036 125.152 16.172 124.168 15.548C123.208 14.924 122.056 14.612 120.712 14.612C119.344 14.612 118.144 14.936 117.112 15.584C116.08 16.232 115.276 17.132 114.7 18.284C114.148 19.412 113.872 20.708 113.872 22.172C113.872 23.636 114.184 24.932 114.808 26.06C115.456 27.188 116.332 28.076 117.436 28.724C118.54 29.372 119.812 29.696 121.252 29.696C122.116 29.696 122.98 29.552 123.844 29.264C124.732 28.952 125.44 28.568 125.968 28.112C126.232 27.896 126.532 27.788 126.868 27.788C127.204 27.764 127.492 27.848 127.732 28.04C128.044 28.328 128.2 28.64 128.2 28.976C128.224 29.312 128.092 29.6 127.804 29.84C127.012 30.512 126.004 31.076 124.78 31.532C123.556 31.964 122.38 32.18 121.252 32.18ZM135.05 19.868C135.122 18.38 135.506 17.048 136.202 15.872C136.922 14.696 137.846 13.772 138.974 13.1C140.126 12.428 141.398 12.092 142.79 12.092C143.894 12.092 144.746 12.248 145.346 12.56C145.946 12.872 146.174 13.328 146.03 13.928C145.934 14.288 145.766 14.528 145.526 14.648C145.31 14.768 145.034 14.816 144.698 14.792C144.386 14.768 144.026 14.744 143.618 14.72C142.274 14.6 141.074 14.744 140.018 15.152C138.986 15.536 138.158 16.136 137.534 16.952C136.934 17.768 136.634 18.74 136.634 19.868H135.05ZM135.266 32C134.834 32 134.498 31.88 134.258 31.64C134.018 31.4 133.898 31.064 133.898 30.632V13.676C133.898 13.244 134.018 12.908 134.258 12.668C134.498 12.428 134.834 12.308 135.266 12.308C135.698 12.308 136.034 12.428 136.274 12.668C136.514 12.908 136.634 13.244 136.634 13.676V30.632C136.634 31.064 136.514 31.4 136.274 31.64C136.034 31.88 135.698 32 135.266 32Z" fill="black"/>
</svg>
