<svg width="375" height="44" viewBox="0 0 375 44" fill="none" xmlns="http://www.w3.org/2000/svg">
<rect opacity="0.35" x="336.5" y="17.8333" width="21" height="10.3333" rx="2.16667" stroke="black"/>
<path opacity="0.4" d="M359 21V25C359.808 24.6612 360.333 23.8731 360.333 23C360.333 22.1269 359.808 21.3388 359 21Z" fill="black"/>
<rect x="338" y="19.3333" width="18" height="7.33333" rx="1.33333" fill="black"/>
<path fill-rule="evenodd" clip-rule="evenodd" d="M323.334 19.5739C325.559 19.574 327.698 20.4117 329.311 21.9138C329.432 22.0298 329.626 22.0284 329.746 21.9106L330.906 20.7627C330.967 20.703 331.001 20.6221 331 20.5379C331 20.4537 330.965 20.3731 330.904 20.3141C326.672 16.3398 319.995 16.3398 315.763 20.3141C315.702 20.3731 315.667 20.4536 315.667 20.5378C315.666 20.622 315.7 20.7029 315.76 20.7627L316.921 21.9106C317.041 22.0285 317.235 22.03 317.356 21.9138C318.969 20.4116 321.109 19.5739 323.334 19.5739ZM323.332 23.2995C324.556 23.2994 325.736 23.756 326.643 24.5805C326.766 24.6976 326.959 24.695 327.079 24.5748L328.239 23.3977C328.3 23.3359 328.334 23.2522 328.333 23.1651C328.333 23.0781 328.297 22.995 328.235 22.9345C325.472 20.3552 321.195 20.3552 318.432 22.9345C318.37 22.995 318.334 23.0781 318.333 23.1652C318.333 23.2523 318.367 23.336 318.428 23.3977L319.588 24.5748C319.708 24.695 319.901 24.6976 320.024 24.5805C320.93 23.7565 322.109 23.3 323.332 23.2995ZM325.667 26.0231C325.668 26.1085 325.634 26.1909 325.572 26.2508L323.557 28.2419C323.498 28.3004 323.418 28.3333 323.334 28.3333C323.249 28.3333 323.169 28.3004 323.11 28.2419L321.095 26.2508C321.033 26.1908 320.998 26.1084 321 26.023C321.002 25.9375 321.04 25.8566 321.105 25.7993C322.391 24.7336 324.276 24.7336 325.562 25.7993C325.627 25.8567 325.665 25.9376 325.667 26.0231Z" fill="black"/>
<path fill-rule="evenodd" clip-rule="evenodd" d="M310.667 18.6667C310.667 18.1144 310.219 17.6667 309.667 17.6667H308.667C308.114 17.6667 307.667 18.1144 307.667 18.6667V27.3333C307.667 27.8856 308.114 28.3333 308.667 28.3333H309.667C310.219 28.3333 310.667 27.8856 310.667 27.3333V18.6667ZM304 20H305C305.552 20 306 20.4477 306 21V27.3333C306 27.8856 305.552 28.3333 305 28.3333H304C303.448 28.3333 303 27.8856 303 27.3333V21C303 20.4477 303.448 20 304 20ZM300.333 22.3333H299.333C298.781 22.3333 298.333 22.781 298.333 23.3333V27.3333C298.333 27.8856 298.781 28.3333 299.333 28.3333H300.333C300.886 28.3333 301.333 27.8856 301.333 27.3333V23.3333C301.333 22.781 300.886 22.3333 300.333 22.3333ZM296.667 25.3333C296.667 24.781 296.219 24.3333 295.667 24.3333H294.667C294.114 24.3333 293.667 24.781 293.667 25.3333V27.3333C293.667 27.8856 294.114 28.3333 294.667 28.3333H295.667C296.219 28.3333 296.667 27.8856 296.667 27.3333V25.3333Z" fill="black"/>
<path d="M36.9973 28.2563C39.6853 28.2563 41.282 26.1543 41.282 22.5947C41.282 21.2544 41.0256 20.1265 40.5349 19.2549C39.8245 17.8999 38.6013 17.1675 37.0559 17.1675C34.7561 17.1675 33.1301 18.7129 33.1301 20.8809C33.1301 22.917 34.595 24.3965 36.6091 24.3965C37.8469 24.3965 38.8503 23.8179 39.3484 22.8145H39.3704C39.3704 22.8145 39.3997 22.8145 39.407 22.8145C39.4216 22.8145 39.4729 22.8145 39.4729 22.8145C39.4729 25.2314 38.5574 26.6743 37.012 26.6743C36.1038 26.6743 35.4006 26.1763 35.1589 25.3779H33.2766C33.5916 27.1138 35.0637 28.2563 36.9973 28.2563ZM37.0632 22.895C35.8474 22.895 34.9832 22.0308 34.9832 20.8223C34.9832 19.6431 35.8914 18.7422 37.0706 18.7422C38.2498 18.7422 39.158 19.6577 39.158 20.8516C39.158 22.0308 38.2717 22.895 37.0632 22.895ZM44.2665 26.8794C44.9623 26.8794 45.4384 26.3813 45.4384 25.7222C45.4384 25.0557 44.9623 24.5649 44.2665 24.5649C43.578 24.5649 43.0946 25.0557 43.0946 25.7222C43.0946 26.3813 43.578 26.8794 44.2665 26.8794ZM44.2665 21.3862C44.9623 21.3862 45.4384 20.8955 45.4384 20.2363C45.4384 19.5698 44.9623 19.0791 44.2665 19.0791C43.578 19.0791 43.0946 19.5698 43.0946 20.2363C43.0946 20.8955 43.578 21.3862 44.2665 21.3862ZM47.4635 20.522V20.5513H49.2359V20.522C49.2359 19.4453 49.983 18.7202 51.0889 18.7202C52.129 18.7202 52.8907 19.394 52.8907 20.3242C52.8907 21.0713 52.5318 21.6206 51.0889 23.0854L47.566 26.689V28H54.9049V26.396H50.1588V26.2715L52.3707 24.0522C54.1651 22.2798 54.7437 21.3423 54.7437 20.207C54.7437 18.4419 53.2349 17.1675 51.1475 17.1675C48.9796 17.1675 47.4635 18.5444 47.4635 20.522ZM57.1423 28H59.1199L63.6389 19.0425V17.4312H56.2854V19.0205H61.7346V19.1377L57.1423 28Z" fill="black"/>
</svg>
