<svg width="375" height="84" viewBox="0 0 375 84" fill="none" xmlns="http://www.w3.org/2000/svg">
<g filter="url(#filter0_bd)">
<rect y="0.5" width="375" height="83" fill="white"/>
</g>
<path fill-rule="evenodd" clip-rule="evenodd" d="M23.7071 30.9853L24.7782 29.9142V35.5563V35.5564V36.5563H36.7782V35.5564V35.5563V29.9142L37.8492 30.9853L38.5563 30.2782L31.4853 23.2071L30.7782 22.5L30.0711 23.2071L23 30.2782L23.7071 30.9853ZM25.7782 35.5563V28.9142L30.7782 23.9142L35.7782 28.9142V35.5563H32.7782V31.5564V30.5564H28.7782V31.5564V35.5563H25.7782ZM29.7782 31.5564V35.5563H31.7782V31.5564H29.7782Z" fill="black" fill-opacity="0.8"/>
<path fill-rule="evenodd" clip-rule="evenodd" d="M106 28C106 31.0376 103.538 33.5 100.5 33.5C97.4624 33.5 95 31.0376 95 28C95 24.9624 97.4624 22.5 100.5 22.5C103.538 22.5 106 24.9624 106 28ZM104.729 32.9362C103.592 33.911 102.115 34.5 100.5 34.5C96.9101 34.5 94 31.5899 94 28C94 24.4101 96.9101 21.5 100.5 21.5C104.09 21.5 107 24.4101 107 28C107 29.6149 106.411 31.0923 105.436 32.2291L109.854 36.6464L109.146 37.3536L104.729 32.9362Z" fill="black" fill-opacity="0.8"/>
<rect x="153" y="9.5" width="70" height="40" rx="20" fill="url(#paint0_linear)"/>
<path fill-rule="evenodd" clip-rule="evenodd" d="M188.5 23H187.5V29H181.5V30H187.5V36H188.5V30H194.5V29H188.5V23Z" fill="white"/>
<path fill-rule="evenodd" clip-rule="evenodd" d="M267.927 33.0266L267.69 32.5341C267.248 31.6174 267 30.5891 267 29.5C267 25.634 270.134 22.5 274 22.5C277.866 22.5 281 25.634 281 29.5C281 33.366 277.866 36.5 274 36.5C272.895 36.5 271.853 36.2448 270.926 35.7911L270.658 35.6599L270.362 35.6969L265.944 36.2492L267.64 33.4923L267.927 33.0266ZM264.672 36.4082L264 37.5L265.272 37.341L270.487 36.6892C271.547 37.2085 272.74 37.5 274 37.5C278.418 37.5 282 33.9183 282 29.5C282 25.0817 278.418 21.5 274 21.5C269.582 21.5 266 25.0817 266 29.5C266 30.7426 266.283 31.919 266.789 32.9682L264.672 36.4082Z" fill="black" fill-opacity="0.8"/>
<path d="M344.217 29.9783C341.336 29.9783 339 32.3142 339 35.1957V36.5H349.435V35.1957C349.435 32.3142 347.099 29.9783 344.217 29.9783Z" stroke="black"/>
<ellipse cx="344.218" cy="25.413" rx="3.91307" ry="3.91304" stroke="black" stroke-linecap="square"/>
<rect x="120" y="70.5" width="135" height="5" rx="2.5" fill="black"/>
<defs>
<filter id="filter0_bd" x="-27.1828" y="-26.6828" width="429.366" height="137.366" filterUnits="userSpaceOnUse" color-interpolation-filters="sRGB">
<feFlood flood-opacity="0" result="BackgroundImageFix"/>
<feGaussianBlur in="BackgroundImage" stdDeviation="13.5914"/>
<feComposite in2="SourceAlpha" operator="in" result="effect1_backgroundBlur"/>
<feColorMatrix in="SourceAlpha" type="matrix" values="0 0 0 0 0 0 0 0 0 0 0 0 0 0 0 0 0 0 127 0"/>
<feOffset dy="-0.5"/>
<feColorMatrix type="matrix" values="0 0 0 0 0 0 0 0 0 0 0 0 0 0 0 0 0 0 0.3 0"/>
<feBlend mode="normal" in2="effect1_backgroundBlur" result="effect2_dropShadow"/>
<feBlend mode="normal" in="SourceGraphic" in2="effect2_dropShadow" result="shape"/>
</filter>
<linearGradient id="paint0_linear" x1="202.259" y1="9.5" x2="191.96" y2="53.7414" gradientUnits="userSpaceOnUse">
<stop stop-color="#FF00D6"/>
<stop offset="1" stop-color="#FF4D00"/>
</linearGradient>
</defs>
</svg>
